<svg xmlns="http://www.w3.org/2000/svg" viewBox="0 0 331.1 352.2"><defs><style>.cls-1{fill:#3b6af6;}</style></defs><g id="Layer_2" data-name="Layer 2"><g id="Layer_1-2" data-name="Layer 1"><path class="cls-1" d="M263.28,27.8l-1.53-2.94C248.73-.06,220.2-4,193.07,3.3c-59,16-134,51-167.15,87.29C7,111.34-7.64,133.84,4.36,159.26c4.36,9.23,17.07,22.34,29.22,28.53,18.37,9.35,57.51,20.65,88.28,23.92,10.08,1.07,20.84,1.44,29.69-3.47s14.53-15.8,9.26-24.45c-4.54-7.45-12.92-10-16.76-17.82-2.61-5.33-2.12-11,1.11-16.72s11.37-12.95,16.42-16.46c23-16,64-29.63,80.15-36.32C267.69,85.71,276.29,52.71,263.28,27.8Z"/><path class="cls-1" d="M67.82,324.4l1.54,2.94c13,24.92,41.54,28.91,68.67,21.56,59-16,134-51,167.15-87.29,19-20.75,33.56-43.25,21.56-68.67-4.36-9.23-17.07-22.34-29.22-28.53-18.37-9.35-57.51-20.65-88.28-23.92-10.07-1.07-20.84-1.44-29.69,3.47s-14.53,15.8-9.26,24.45c4.54,7.45,12.93,10,16.76,17.82,2.61,5.33,2.12,11-1.11,16.72s-11.37,13-16.42,16.46c-23,16-64,29.63-80.14,36.32C63.41,266.49,54.81,299.49,67.82,324.4Z"/></g></g></svg>