<svg width="1000" height="1000" viewBox="0 0 1000 1000" fill="none" xmlns="http://www.w3.org/2000/svg" preserveAspectRatio="none">
<path d="M812.5 320L750 540L687.5 590L625 500L562.5 680L500 760L437.5 670L375 750L312.5 720L250 850L187.5 820L125 740L62.5 870L0 900V1000H1000V0L937.5 240L875 350L812.5 320Z" fill="white" fill-opacity="0.25" vector-effect="non-scaling-stroke"/>
<path d="M1000 0L937.5 240L875 350L812.5 320L750 540L687.5 590L625 500L562.5 680L500 760L437.5 670L375 750L312.5 720L250 850L187.5 820L125 740L62.5 870L0 900" stroke="#92A7F7" stroke-width="3" stroke-linecap="round" vector-effect="non-scaling-stroke"/>
</svg>
